<?xml version="1.0" standalone="no"?>
<!DOCTYPE svg PUBLIC "-//W3C//DTD SVG 20010904//EN"
 "http://www.w3.org/TR/2001/REC-SVG-20010904/DTD/svg10.dtd">
<svg version="1.0" xmlns="http://www.w3.org/2000/svg"
 width="724.000000pt" height="880.000000pt" viewBox="0 0 724.000000 880.000000"
 preserveAspectRatio="xMidYMid meet">
<metadata>
Created by potrace 1.15, written by Peter Selinger 2001-2017
</metadata>
<g transform="translate(0.000000,880.000000) scale(0.100000,-0.100000)"
fill="#000000" stroke="none">
<path d="M4645 8079 c-2 -3 -42 -18 -89 -34 -47 -15 -86 -32 -86 -36 0 -5 -6
-9 -14 -9 -8 0 -38 -16 -67 -36 -30 -20 -67 -43 -84 -50 -32 -15 -67 -36 -75
-44 -3 -3 -21 -17 -40 -30 -19 -13 -41 -30 -48 -37 -7 -7 -17 -13 -20 -13 -4
0 -18 -10 -32 -23 -14 -12 -41 -33 -60 -47 -19 -13 -37 -27 -40 -30 -8 -9
-174 -154 -185 -162 -47 -34 -139 -114 -178 -157 -26 -28 -51 -51 -56 -51 -15
0 -264 -259 -277 -288 -7 -17 -23 -36 -36 -43 -33 -17 -88 -71 -88 -85 0 -7
-17 -30 -37 -51 -41 -42 -83 -99 -83 -112 0 -5 -11 -16 -25 -25 -14 -9 -25
-21 -25 -26 0 -6 -12 -29 -27 -53 -40 -60 -44 -66 -80 -102 -18 -17 -33 -36
-33 -42 0 -6 -9 -22 -21 -37 -11 -14 -18 -30 -14 -36 4 -6 -1 -7 -11 -3 -11 4
-15 2 -11 -4 3 -5 -4 -19 -16 -31 -33 -31 -46 -48 -59 -79 -7 -15 -17 -35 -24
-43 -33 -41 -125 -221 -122 -239 1 -9 -15 -52 -35 -95 -20 -43 -37 -81 -37
-84 0 -3 -9 -23 -20 -46 -26 -55 -80 -274 -80 -328 0 -24 -5 -63 -11 -87 -8
-35 -7 -47 6 -61 8 -9 13 -19 10 -22 -11 -11 19 -193 52 -313 38 -139 116
-316 177 -400 32 -44 36 -47 36 -25 0 14 -5 45 -11 70 -64 271 -74 607 -26
810 27 114 148 442 130 355 -3 -16 -14 -50 -24 -75 -76 -187 -102 -534 -60
-805 21 -134 35 -191 86 -335 13 -36 38 -107 55 -159 17 -52 39 -110 49 -130
10 -20 33 -83 51 -141 17 -58 35 -115 40 -126 5 -12 11 -43 15 -70 3 -27 14
-78 23 -114 24 -100 21 -321 -7 -430 -36 -139 -123 -337 -203 -460 -106 -165
-345 -356 -534 -427 -146 -54 -203 -65 -334 -67 -139 -1 -204 6 -269 29 -52
18 -51 18 -51 4 0 -26 133 -115 240 -159 36 -15 99 -35 142 -45 157 -37 473
-2 616 68 233 113 352 204 524 403 105 122 176 246 198 344 6 30 15 68 20 84
14 43 5 307 -13 416 -9 52 -21 124 -26 160 -10 60 -29 139 -51 215 -88 300
-139 577 -129 705 4 44 5 43 17 -30 31 -181 120 -490 213 -745 64 -175 107
-401 115 -608 5 -133 4 -171 -9 -212 -68 -214 -154 -353 -321 -520 -103 -102
-139 -131 -241 -190 -66 -39 -136 -77 -155 -86 -141 -66 -300 -118 -427 -140
-74 -13 -308 -7 -363 10 -19 5 -66 17 -104 26 -101 23 -244 90 -331 154 -27
20 -57 41 -66 46 -135 82 -274 257 -431 545 -51 94 -43 91 72 -20 3 -3 28 -24
56 -48 116 -95 227 -159 384 -219 194 -74 200 -75 365 -74 82 0 164 3 180 7
126 23 295 95 415 177 54 37 180 160 180 176 0 6 5 11 10 11 6 0 15 12 20 26
6 15 19 39 29 53 19 26 104 191 135 261 39 90 67 184 72 252 7 77 -12 305 -26
323 -4 6 -11 26 -15 45 -9 40 -26 81 -102 240 -31 63 -62 130 -70 148 -8 19
-38 73 -67 120 -30 48 -71 123 -92 167 -22 44 -42 82 -46 83 -5 2 -8 10 -8 17
0 8 -6 29 -14 47 -27 62 -76 233 -90 313 -7 44 -14 123 -15 175 -3 134 -11
126 -11 -12 0 -126 18 -236 55 -338 13 -36 27 -81 31 -100 3 -19 10 -41 15
-50 4 -8 30 -60 57 -115 26 -55 63 -122 80 -150 27 -41 192 -368 223 -440 5
-11 22 -61 39 -112 34 -102 55 -304 41 -378 -13 -63 -41 -165 -51 -183 -5 -10
-24 -51 -42 -92 -130 -296 -278 -462 -512 -570 -158 -74 -208 -84 -416 -85
l-185 0 -100 38 c-135 51 -285 125 -373 184 -109 73 -251 208 -273 260 -24 56
-49 58 -49 3 0 -22 4 -40 9 -40 4 0 14 -28 20 -62 16 -81 47 -180 77 -242 13
-28 24 -50 24 -51 0 -1 -21 6 -48 15 -46 16 -96 38 -232 103 -73 35 -199 108
-246 144 -67 50 -59 17 22 -93 181 -246 531 -571 734 -683 143 -79 302 -147
420 -180 241 -67 390 -91 560 -91 104 0 276 22 358 46 24 7 24 7 -6 -52 -56
-110 -144 -197 -367 -364 -142 -107 -231 -164 -339 -217 -93 -45 -239 -103
-260 -103 -11 0 -16 -6 -14 -16 5 -24 100 -56 208 -69 30 -4 56 -8 57 -8 4 -5
-271 -198 -362 -254 -11 -7 -68 -36 -127 -65 -111 -55 -142 -87 -71 -73 21 4
63 11 93 15 51 8 140 26 315 65 39 8 129 31 200 51 72 19 153 41 180 48 90 24
323 102 450 151 11 4 49 19 85 32 59 23 156 71 264 133 22 12 58 36 80 54 23
18 70 53 106 78 68 48 226 205 275 273 16 22 34 45 40 50 20 19 72 91 146 200
63 93 94 149 149 265 51 108 82 335 78 567 -3 155 -1 172 14 176 9 3 20 18 23
33 4 16 13 43 20 59 35 81 44 112 70 248 23 119 16 338 -15 447 -11 41 -29
111 -39 155 -10 44 -24 94 -30 110 -21 59 -73 231 -88 290 -24 100 -63 303
-63 329 0 13 -7 43 -16 67 -25 70 -36 311 -19 406 26 137 33 176 46 266 7 48
18 92 26 98 7 6 13 24 13 39 0 30 36 120 48 120 5 0 14 17 22 38 16 44 59 112
71 112 5 0 8 3 7 8 -5 25 48 102 70 102 10 0 22 8 28 18 6 9 32 28 58 40 63
32 227 43 278 19 18 -8 56 -18 83 -22 186 -27 260 -60 279 -122 4 -13 14 -23
22 -23 8 0 14 -7 14 -15 0 -8 4 -15 8 -15 5 0 17 -18 27 -40 13 -29 24 -40 40
-40 20 0 26 12 49 83 36 115 46 166 53 275 l6 95 31 -36 c17 -19 42 -49 56
-66 14 -17 30 -31 36 -31 13 0 62 91 92 170 39 106 80 271 99 398 3 23 9 42
13 42 5 0 32 -25 62 -55 29 -30 60 -55 69 -55 16 0 59 89 59 122 0 9 5 20 10
23 6 3 10 14 10 24 0 10 14 51 31 92 16 41 48 145 70 231 l40 158 -5 152 c-3
95 -14 195 -27 263 -11 61 -23 128 -26 150 -4 36 -11 45 -51 70 -25 17 -59 36
-76 43 -37 16 -134 13 -163 -5 -12 -7 -48 -13 -80 -13 -58 0 -58 0 -78 41 -10
23 -25 43 -32 46 -7 3 -24 26 -39 51 -15 26 -30 49 -33 52 -7 6 -21 28 -63
103 -21 37 -40 58 -53 59 -46 5 -217 3 -220 -3z m-1290 -5866 c-36 -190 -92
-293 -284 -518 -14 -16 -82 -77 -141 -126 -99 -82 -137 -104 -375 -214 -186
-86 -320 -120 -590 -150 -250 -28 -290 -32 -299 -27 -8 4 71 38 146 62 52 16
162 73 254 131 51 32 98 59 103 59 5 0 11 4 13 9 2 5 44 40 94 78 216 162 322
271 380 390 17 35 47 58 89 69 l27 7 -36 -69 c-20 -38 -42 -78 -49 -89 -75
-119 -123 -181 -207 -264 -55 -54 -97 -101 -94 -104 16 -15 270 96 359 157 53
37 229 190 272 236 22 25 51 65 64 89 79 144 98 186 114 248 17 67 19 70 82
113 35 24 69 50 76 59 20 24 21 -46 2 -146z"/>
<path d="M6185 6740 c-107 -97 -355 -355 -402 -415 -61 -81 -103 -150 -103
-171 0 -22 92 -104 116 -104 13 0 24 4 24 8 0 4 35 43 77 86 l77 77 56 -6 55
-6 50 58 c61 70 145 155 203 204 23 20 42 43 42 51 0 15 -79 140 -92 146 -5 2
-8 9 -8 15 0 7 -12 24 -25 40 -24 27 -51 34 -70 17z"/>
<path d="M6500 6109 c0 -4 -8 -9 -17 -13 -10 -3 -38 -19 -63 -35 -25 -16 -74
-47 -109 -68 -35 -21 -86 -61 -114 -90 -27 -29 -62 -55 -77 -58 -24 -5 -74
-49 -94 -82 -9 -17 50 -140 73 -152 19 -11 72 22 131 80 34 34 53 36 87 9 42
-33 68 -25 180 57 l106 77 -6 60 c-4 34 -13 86 -20 116 -8 30 -17 67 -21 82
-5 22 -12 27 -31 26 -14 -1 -25 -5 -25 -9z"/>
<path d="M3910 5013 c-40 -7 -163 -70 -192 -98 -16 -14 -28 -37 -28 -50 0 -21
5 -24 58 -30 31 -3 79 -10 105 -16 68 -13 110 -11 133 6 10 8 24 15 31 15 6 0
36 14 67 32 46 26 56 37 56 59 0 22 -8 31 -53 52 -53 25 -132 39 -177 30z"/>
<path d="M5825 4994 c-5 -1 -22 -5 -37 -8 -15 -3 -33 -12 -40 -19 -8 -6 -27
-20 -43 -29 -17 -9 -31 -23 -33 -30 -2 -13 40 -38 64 -38 7 0 14 -4 16 -8 6
-15 100 -62 123 -62 13 0 51 7 85 16 41 10 78 13 111 9 l49 -7 0 31 c0 21 -5
31 -15 31 -8 0 -15 6 -15 14 0 14 -74 56 -99 56 -7 0 -25 8 -39 19 -24 16
-101 32 -127 25z"/>
<path d="M4125 4869 c-27 -16 -60 -35 -73 -41 -42 -21 -24 -49 43 -70 133 -42
221 -72 245 -84 14 -7 57 -25 95 -40 39 -16 95 -41 125 -56 67 -35 90 -36 89
-5 0 16 -24 39 -91 87 -50 36 -98 73 -106 83 -9 9 -20 17 -24 17 -4 0 -52 32
-107 70 -58 41 -109 70 -122 69 -13 0 -46 -14 -74 -30z"/>
<path d="M5529 4837 c-155 -104 -359 -271 -359 -293 0 -19 4 -18 48 9 20 13
66 34 102 47 36 13 80 32 98 43 18 10 35 17 38 14 3 -3 29 6 57 21 50 25 100
40 217 66 71 15 80 42 23 69 -21 10 -51 26 -68 36 -60 38 -85 36 -156 -12z"/>
<path d="M4400 3400 c0 -5 18 -29 40 -52 70 -74 135 -138 140 -138 3 0 21 -14
40 -30 19 -16 64 -42 100 -57 59 -24 76 -26 200 -26 121 0 142 2 202 25 37 14
88 43 115 64 122 100 239 246 176 219 -134 -57 -168 -65 -218 -55 -27 6 -83
14 -123 19 -72 9 -73 9 -101 -20 -36 -36 -60 -37 -99 -4 -25 21 -40 25 -88 25
-33 -1 -86 -7 -119 -14 -56 -12 -65 -11 -130 12 -38 13 -74 28 -79 33 -13 12
-56 12 -56 -1z"/>
</g>
</svg>
