<?xml version="1.0" encoding="utf-8"?>
<!-- Generator: Adobe Illustrator 20.1.0, SVG Export Plug-In . SVG Version: 6.00 Build 0)  -->
<svg version="1.1" id="Layer_1" xmlns="http://www.w3.org/2000/svg" xmlns:xlink="http://www.w3.org/1999/xlink" x="0px" y="0px"
	 viewBox="0 0 128 128" style="enable-background:new 0 0 128 128;" xml:space="preserve">
<path class="skull" d="M127.685,36.841v44.987l-22.031,14.255v-7.961c0,0-2.591,3.111-7.405,5.184v11.478l-11.293,6.85V99.415h-4.813v13.144
	l-8.886,5.554v-14.44h-4.813v17.032L64,122.557l-4.443-1.851v-17.032h-4.813v14.44l-8.886-5.554V99.415h-4.813v12.219l-11.293-6.85
	V93.306c-4.814-2.072-7.405-5.184-7.405-5.184v7.961L0.315,81.828V36.841L64,4.443L127.685,36.841z M97.257,38.561
	c-7.829,0.942-13.077,10.84-11.722,22.108s8.802,19.639,16.631,18.697s13.077-10.84,11.722-22.108S105.087,37.619,97.257,38.561z
	 M82.606,65.222V55.114l-7.22,5.054L82.606,65.222z M116.818,55.114v10.108l7.22-5.054L116.818,55.114z M111.713,76.535
	l-7.148,7.148l8.679,1.532L111.713,76.535z M95.268,83.682l-7.148-7.148l-1.532,8.679L95.268,83.682z M87.102,41.949l7.148-7.148
	L85.57,33.27L87.102,41.949z M104.565,34.802l7.148,7.148l1.532-8.679L104.565,34.802z M72.123,91.547
	c2.703-3.957-7.691-8.47-7.691-8.47s-10.394,4.513-7.691,8.47c2.703,3.957,7.691-0.555,7.691-0.555S69.42,95.504,72.123,91.547z
	 M14.111,57.257c-1.356,11.268,3.892,21.166,11.722,22.108s15.276-7.429,16.631-18.697c1.356-11.268-3.892-21.166-11.722-22.108
	C22.913,37.619,15.467,45.989,14.111,57.257z M52.614,60.168l-7.22-5.054v10.108L52.614,60.168z M3.962,60.168l7.22,5.054V55.114
	L3.962,60.168z M14.755,85.214l8.679-1.532l-7.148-7.148L14.755,85.214z M41.411,85.214l-1.532-8.679l-7.148,7.148L41.411,85.214z
	 M42.43,33.27l-8.679,1.532l7.148,7.148L42.43,33.27z M14.755,33.27l1.532,8.679l7.148-7.148L14.755,33.27z"/>
</svg>
